<svg xmlns="http://www.w3.org/2000/svg" version="1.0" width="300.000000pt" height="390.000000pt" viewBox="0 0 300.000000 390.000000" preserveAspectRatio="xMidYMid meet">
<metadata fill="#fcfafa">
Created by potrace 1.10, written by Peter Selinger 2001-2011
</metadata>
<g transform="translate(0.000000,390.000000) scale(0.100000,-0.100000)" fill="#fcfafa" stroke="none">
<path d="M1402 3690 c-26 -47 -33 -73 -35 -119 -2 -75 26 -141 58 -141 25 0 35 -17 35 -61 0 -29 -1 -30 -22 -15 -12 9 -28 16 -36 16 -7 0 -38 12 -69 26 -51 25 -58 25 -86 12 -30 -14 -32 -13 -68 23 -58 58 -129 85 -244 93 -27 2 -58 7 -67 11 -55 22 35 -83 99 -117 28 -14 73 -70 73 -89 0 -3 -25 -4 -55 -1 -70 6 -121 -4 -146 -29 -23 -23 -24 -42 -3 -64 13 -13 31 -14 105 -9 86 7 90 6 128 -21 26 -18 46 -42 56 -69 16 -42 51 -87 80 -103 12 -7 13 -14 3 -40 -10 -26 -18 -31 -57 -37 -25 -3 -56 -8 -68 -12 -21 -6 -23 -3 -23 33 0 73 -50 106 -128 83 -34 -11 -44 -10 -80 9 -51 26 -87 27 -109 2 -9 -11 -20 -18 -24 -15 -14 8 3 68 26 94 44 49 49 70 53 219 3 110 1 142 -8 139 -7 -2 -18 -20 -24 -39 -7 -19 -36 -70 -66 -112 -50 -72 -53 -78 -46 -123 3 -26 14 -61 25 -78 21 -34 40 -169 22 -151 -6 6 -16 38 -22 70 -15 83 -64 196 -99 230 -33 32 -71 48 -178 77 -74 20 -93 19 -74 -4 5 -7 33 -64 61 -127 28 -62 62 -129 76 -147 19 -25 22 -34 11 -34 -20 0 -42 24 -62 66 -26 54 -92 88 -173 88 -36 1 -67 -3 -69 -9 -1 -5 6 -11 17 -13 12 -2 35 -24 53 -49 40 -55 78 -76 139 -77 25 -1 53 -7 61 -14 9 -7 41 -23 73 -36 l57 -23 -51 -6 c-84 -10 -136 -61 -113 -111 8 -19 21 -25 64 -31 47 -7 108 -29 108 -40 0 -2 -24 -15 -53 -29 -49 -23 -147 -113 -147 -134 0 -29 67 -46 121 -32 31 9 57 8 112 -4 118 -24 122 -27 123 -77 1 -24 6 -75 11 -112 9 -67 9 -68 -11 -63 -12 3 -24 6 -28 6 -5 0 -8 7 -8 14 0 8 -15 26 -33 40 -156 119 -449 56 -582 -127 -33 -44 -43 -67 -30 -67 3 0 23 9 45 20 47 24 95 25 135 4 19 -11 57 -17 105 -18 70 -1 80 2 145 38 151 84 161 88 202 81 71 -12 73 -20 18 -67 -72 -61 -224 -221 -219 -230 12 -19 145 -2 256 31 l56 17 -30 -43 c-24 -36 -78 -169 -78 -194 0 -11 171 41 248 76 84 39 82 41 57 -75 -7 -36 -13 -65 -12 -66 35 -27 160 30 230 104 32 35 47 46 47 34 0 -34 -50 -89 -110 -120 -47 -25 -114 -41 -200 -47 -211 -16 -303 -75 -359 -231 -25 -72 -25 -74 -6 -74 8 0 15 5 15 10 0 6 51 43 113 84 61 41 139 99 171 129 59 55 87 66 161 67 17 0 49 9 73 20 23 10 42 15 42 10 0 -12 -181 -140 -198 -140 -26 0 -94 -42 -132 -82 -62 -63 -97 -133 -103 -206 -3 -34 -10 -69 -17 -76 -7 -10 -8 -16 -1 -21 12 -7 125 81 188 146 47 49 86 121 105 194 11 40 21 54 58 79 51 35 128 109 151 145 28 44 29 6 3 -48 -16 -31 -44 -65 -69 -85 -66 -50 -132 -132 -143 -179 -15 -58 -18 -200 -5 -204 19 -7 129 74 154 114 43 66 50 95 47 190 -2 80 0 92 21 119 39 49 53 95 58 192 3 50 9 92 13 92 4 0 13 -7 20 -15 7 -8 34 -21 60 -29 74 -22 105 -42 151 -96 39 -46 44 -49 59 -35 29 26 45 100 31 144 -17 57 -15 57 34 3 80 -89 136 -104 302 -80 74 11 84 10 101 -5 41 -37 39 -14 -3 42 -64 84 -89 94 -271 102 -83 4 -161 12 -173 18 -34 19 -14 34 40 29 75 -8 84 14 48 117 -25 73 -45 105 -64 105 -8 0 -15 4 -15 8 0 21 15 19 49 -8 21 -18 57 -34 86 -39 27 -5 51 -13 53 -18 18 -46 42 -80 65 -93 24 -13 30 -13 54 0 49 28 42 104 -14 157 -38 37 -31 40 43 21 44 -12 48 -12 61 9 14 20 16 21 43 5 23 -13 33 -14 54 -4 35 16 33 33 -3 26 -32 -7 -71 10 -71 30 0 20 -114 131 -150 146 -34 14 -35 18 -16 46 28 39 48 145 41 211 -6 60 -8 63 -33 63 -15 0 -63 -11 -107 -25 -44 -14 -81 -25 -82 -25 -2 0 -3 16 -3 35 0 44 -21 86 -56 114 -34 27 -62 26 -97 -2 -23 -18 -30 -34 -36 -77 -6 -49 -8 -53 -18 -34 -16 27 -80 38 -135 23 -38 -10 -43 -9 -67 16 l-26 26 26 47 26 47 90 17 c50 9 105 24 123 33 31 16 33 16 59 -8 14 -13 38 -32 52 -41 15 -9 44 -46 65 -81 20 -36 41 -65 46 -65 12 0 28 45 28 78 0 31 -75 145 -107 163 -22 12 -21 13 25 42 26 17 61 38 77 46 54 28 40 50 -55 87 -89 35 -152 42 -195 22 -35 -16 -45 0 -15 23 14 11 33 27 43 35 9 7 35 14 56 14 52 0 109 21 195 73 39 24 86 49 104 56 17 7 32 16 32 20 0 14 -122 34 -175 28 -30 -3 -80 -18 -112 -34 -49 -25 -62 -37 -85 -82 -29 -56 -46 -81 -57 -81 -13 0 -29 74 -20 92 6 12 6 32 0 56 -24 92 -29 140 -21 177 9 38 6 55 -8 55 -4 0 -22 -27 -40 -60z m43 -146 c9 -72 1 -68 -19 9 -15 58 -11 113 5 70 4 -11 10 -46 14 -79z m-40 4 c4 -18 14 -45 21 -60 13 -24 13 -28 0 -28 -19 0 -32 24 -41 78 -8 50 10 59 20 10z m434 -4 c2 -2 -9 -4 -25 -4 -49 0 -96 -18 -173 -65 -40 -25 -77 -45 -83 -45 -20 0 35 61 73 80 74 38 182 56 208 34z m1 -21 c0 -14 -173 -101 -214 -109 -27 -5 -37 -3 -32 4 11 18 116 74 175 93 65 21 71 22 71 12z m-838 -24 c101 -22 151 -58 193 -140 13 -25 30 -51 39 -58 14 -11 12 -17 -12 -47 -30 -38 -35 -40 -54 -21 -7 7 -32 27 -54 44 -23 18 -47 47 -55 65 -23 59 -59 104 -99 127 -68 38 -52 50 42 30z m-225 -176 c-6 -88 -22 -153 -37 -153 -13 0 -4 182 10 213 24 50 33 31 27 -60z m553 52 c27 -14 58 -25 68 -25 22 0 42 -19 41 -40 0 -8 -13 -25 -29 -38 l-29 -23 -21 21 c-12 12 -33 20 -52 20 -41 0 -51 7 -71 46 -18 36 -10 49 41 63 1 1 25 -10 52 -24z m-901 -49 c44 -33 94 -87 152 -166 26 -35 90 -162 85 -167 -2 -2 -33 11 -69 28 -90 42 -122 83 -189 243 -16 39 -32 77 -35 84 -9 20 7 14 56 -22z m62 6 c83 -54 124 -110 155 -211 20 -67 16 -73 -10 -16 -30 66 -139 201 -182 227 -19 11 -34 22 -34 24 0 12 31 1 71 -24z m222 -84 c-2 -50 -5 -93 -7 -95 -2 -3 -10 5 -16 17 -19 36 -17 112 3 143 9 15 19 27 20 27 1 0 1 -41 0 -92z m330 48 c18 -8 57 -37 89 -65 31 -28 60 -51 65 -51 11 0 37 -119 28 -128 -13 -14 -38 16 -56 67 -35 102 -89 135 -212 131 -101 -4 -107 -3 -107 19 0 12 11 23 28 29 40 15 128 14 165 -2z m632 -15 c44 -15 79 -32 79 -37 -1 -5 -26 -24 -55 -42 -30 -17 -73 -44 -97 -58 -34 -21 -50 -25 -78 -19 -34 6 -35 7 -20 24 9 10 14 25 11 33 -10 25 -62 58 -81 51 -16 -6 -16 -7 2 -14 18 -7 18 -8 -2 -8 -25 -1 -41 28 -22 41 95 64 148 70 263 29z m-325 -26 c7 -8 9 -23 5 -32 -6 -16 -8 -15 -25 7 -11 14 -20 28 -20 33 0 13 27 8 40 -8z m-46 -20 c10 -38 56 -57 110 -45 51 11 78 5 74 -18 -4 -19 -22 -29 -74 -42 -54 -13 -128 -79 -160 -142 -14 -28 -28 -48 -30 -45 -3 3 2 31 12 63 17 58 16 73 -12 175 -5 19 41 79 61 79 7 0 16 -11 19 -25z m-927 -77 c7 -6 12 -13 10 -15 -4 -4 -97 46 -97 53 0 6 71 -25 87 -38z m-51 -4 c67 -40 80 -51 71 -60 -14 -15 -106 28 -132 62 -34 45 -16 44 61 -2z m1189 -44 c9 -15 -53 -38 -121 -46 -45 -6 -55 -4 -49 5 21 36 154 67 170 41z m180 -67 c30 -42 45 -73 45 -93 0 -44 -14 -37 -49 24 -19 34 -48 67 -76 86 -25 17 -45 33 -45 36 0 10 46 21 62 15 10 -3 38 -34 63 -68z m-850 7 c26 -17 40 -19 97 -14 75 7 80 3 93 -74 5 -30 3 -48 -7 -59 -10 -13 -10 -17 0 -20 6 -3 12 -10 12 -16 0 -21 -41 -91 -77 -130 -19 -22 -39 -52 -45 -68 -5 -16 -14 -26 -19 -23 -15 9 -11 19 27 74 20 29 45 73 56 98 18 40 19 46 4 60 -14 15 -18 14 -43 -4 -16 -12 -35 -41 -44 -65 l-16 -43 -8 44 c-9 59 -30 90 -59 90 -36 0 -36 -18 -1 -90 18 -36 35 -72 39 -80 3 -8 3 1 0 20 -3 19 -15 54 -27 77 -21 44 -17 68 7 42 14 -16 60 -168 52 -176 -2 -3 -23 12 -46 33 -23 21 -53 46 -68 56 -34 22 -53 77 -42 120 4 18 11 55 15 81 6 48 33 87 58 87 6 0 26 -9 42 -20z m-190 -88 l49 -18 2 -60 2 -59 -51 1 c-35 0 -63 7 -85 21 -19 12 -58 24 -87 28 -64 8 -77 27 -42 63 43 42 131 52 212 24z m966 -10 c26 -23 32 -36 32 -71 0 -35 -6 -47 -35 -74 -36 -33 -41 -43 -54 -112 l-7 -40 -9 35 c-6 19 -19 61 -30 92 -18 51 -19 63 -8 108 8 32 21 57 37 70 33 26 37 25 74 -8z m-382 -50 c19 -16 36 -33 38 -39 3 -7 -12 -30 -32 -52 l-37 -40 -93 2 -93 2 19 37 c11 21 19 51 19 67 0 33 8 40 54 52 46 11 87 2 125 -29z m209 -55 c41 -37 82 -135 82 -194 0 -28 -4 -54 -8 -57 -9 -6 -28 41 -37 96 -8 42 -78 115 -132 137 -38 16 -43 38 -10 44 37 8 80 -2 105 -26z m-482 -20 c-44 -105 -66 -132 -66 -83 0 34 17 77 42 103 28 30 41 19 24 -20z m912 -46 c3 -79 -17 -158 -46 -183 -20 -18 -88 -45 -141 -57 -26 -6 -43 -4 -54 4 -15 11 -11 17 40 56 32 24 79 61 106 82 26 21 47 35 47 30 0 -21 -35 -53 -109 -103 -84 -54 -97 -66 -59 -54 66 20 198 134 198 169 0 9 -10 15 -26 15 -18 0 -45 -18 -88 -60 -35 -33 -66 -60 -69 -60 -4 0 2 15 13 33 22 35 26 72 10 82 -13 8 -66 -48 -91 -96 -29 -58 -39 -57 -33 3 8 68 42 140 74 155 33 16 202 62 215 59 6 -2 11 -35 13 -75z m-539 34 c54 -31 121 -96 121 -116 0 -10 9 -42 20 -71 31 -83 22 -119 -15 -61 -30 46 -148 160 -185 178 -19 10 -37 19 -38 21 -6 4 52 75 58 71 3 -1 20 -11 39 -22z m-561 -69 c87 -71 102 -94 76 -113 -27 -20 -104 -27 -149 -14 -116 33 -135 35 -196 22 -59 -12 -99 -4 -99 20 0 31 135 122 205 140 66 16 81 11 163 -55z m467 -7 c17 -5 48 -25 70 -44 34 -29 38 -37 29 -52 -9 -15 -41 -21 -170 -35 -173 -19 -212 -18 -238 11 -17 18 -16 21 11 62 40 61 85 78 187 72 44 -3 95 -9 111 -14z m421 -93 c-28 -49 -94 -108 -109 -99 -5 3 11 26 35 52 25 25 55 61 68 80 33 48 37 21 6 -33z m-245 -57 l32 -41 -17 -73 c-19 -82 -56 -133 -131 -184 l-45 -30 15 35 c8 20 12 40 9 45 -9 15 -44 10 -51 -7 -4 -12 -11 -8 -34 18 -15 18 -28 38 -29 44 -1 29 183 232 212 234 3 0 21 -18 39 -41z m120 -22 c-13 -13 -15 -61 -3 -53 5 3 24 -5 43 -18 19 -13 65 -33 102 -44 52 -16 83 -33 135 -78 78 -66 112 -109 112 -140 0 -22 -23 -54 -39 -54 -12 0 -47 42 -65 77 -19 37 -43 53 -82 53 -31 0 -104 46 -104 65 0 7 -30 45 -66 84 l-66 71 19 41 c12 28 19 36 21 24 2 -9 -1 -22 -7 -28z m-588 2 c26 -22 37 -38 37 -58 0 -47 -47 -123 -119 -195 l-70 -70 -11 29 c-6 16 -9 34 -6 41 3 8 1 16 -5 19 -5 4 -9 21 -8 38 1 18 -2 69 -6 113 -9 93 -10 91 79 98 26 2 50 7 53 10 10 10 17 7 56 -25z m297 7 c0 -7 -14 -31 -30 -52 -17 -21 -40 -54 -51 -71 -22 -34 -33 -40 -44 -23 -4 6 -24 19 -46 30 -44 23 -48 41 -19 85 16 24 29 31 67 36 90 11 123 10 123 -5z m-200 -14 c0 -19 -23 -32 -37 -21 -20 17 -15 29 12 29 14 0 25 -4 25 -8z m827 -36 c68 -40 126 -106 121 -139 -3 -23 -8 -24 -85 -11 -29 4 -58 20 -92 49 -40 34 -60 44 -103 49 -61 8 -118 26 -118 38 0 4 24 8 53 8 28 1 75 9 102 19 28 10 53 19 57 20 4 0 33 -14 65 -33z m-315 -97 c26 -25 48 -53 48 -62 0 -21 -95 -74 -147 -83 -36 -5 -43 -3 -57 19 -16 23 -15 26 19 77 22 33 35 64 35 84 0 59 4 58 102 -35z m-515 21 c28 -22 19 -26 -22 -10 -14 5 -23 14 -20 20 9 14 13 13 42 -10z m-436 -18 c74 -38 73 -50 -1 -38 -68 11 -133 1 -259 -40 -40 -13 -96 -24 -123 -24 -27 0 -58 -5 -70 -11 -32 -17 -30 -5 4 30 65 67 187 110 309 111 75 0 94 -4 140 -28z m491 -42 c93 -43 105 -59 90 -116 -7 -24 -12 -55 -12 -69 0 -30 -40 -59 -73 -53 -25 5 -217 128 -217 140 0 4 16 24 36 45 19 21 42 51 50 66 18 34 28 33 126 -13z m-492 -17 c0 -5 -10 -13 -23 -19 -12 -6 -57 -30 -100 -53 -88 -46 -138 -52 -223 -26 -27 8 -69 15 -94 16 -70 1 -19 17 57 18 34 1 84 8 110 17 128 45 273 69 273 47z m811 -108 c29 -9 87 3 128 26 39 23 87 18 95 -9 2 -9 10 -41 16 -70 7 -28 16 -55 21 -58 5 -3 9 -12 9 -19 0 -23 -118 -18 -149 6 -31 25 -114 49 -168 49 -51 0 -54 9 -12 32 38 22 36 53 -4 53 -33 -1 -34 8 -4 28 20 14 23 13 34 -8 7 -13 22 -27 34 -30z m-648 6 c8 -39 31 -45 65 -16 18 15 33 21 41 15 15 -9 0 -17 -144 -75 -49 -20 -107 -48 -128 -61 -22 -14 -41 -23 -45 -20 -7 8 178 186 194 186 6 0 14 -13 17 -29z m587 -15 c0 -17 -59 -46 -94 -46 -58 0 -22 23 92 59 1 1 2 -5 2 -13z m-425 -25 c9 -15 -142 -110 -199 -125 -63 -17 -175 -34 -181 -27 -7 6 94 57 170 87 33 13 82 34 109 49 51 26 90 32 101 16z m61 -42 c19 -11 34 -22 34 -25 0 -2 -24 -16 -52 -30 -86 -43 -164 -101 -204 -149 -20 -25 -39 -43 -41 -41 -9 9 63 131 98 166 31 31 117 98 128 99 2 1 19 -8 37 -20z m414 -28 c102 -22 140 -40 140 -67 0 -7 5 -14 10 -16 17 -5 42 -117 34 -152 -14 -68 -20 -69 -71 -15 -36 37 -64 56 -112 73 -86 31 -188 115 -197 161 -11 59 -10 60 196 16z m-317 -27 c31 -15 36 -15 65 0 26 13 32 14 32 3 0 -8 18 -35 41 -61 l41 -46 -25 -43 c-43 -71 -100 -122 -168 -150 -35 -14 -66 -24 -67 -22 -2 2 1 19 6 37 6 18 13 78 16 133 5 95 14 165 22 165 2 0 19 -7 37 -16z m-73 -35 c-6 -18 -10 -49 -10 -67 0 -30 -4 -35 -62 -61 -82 -37 -193 -74 -208 -69 -23 7 123 143 205 191 44 25 81 45 82 43 1 -1 -2 -18 -7 -37z m649 -78 c53 -38 134 -62 224 -68 107 -7 96 -20 -25 -29 -94 -7 -118 0 -195 63 -58 46 -61 74 -4 34z m278 -18 c52 -25 100 -65 59 -50 -11 4 -54 12 -95 18 -63 8 -241 54 -241 62 0 1 51 1 112 -2 94 -3 121 -7 165 -28z m-1087 -305 c-25 -22 -56 -48 -70 -57 -14 -8 -56 -37 -93 -64 -38 -26 -74 -46 -80 -44 -24 8 92 112 167 151 42 21 76 42 76 47 0 8 32 18 40 11 3 -2 -15 -22 -40 -44z m-35 32 c-3 -5 -11 -10 -16 -10 -5 0 -39 -19 -75 -41 -71 -45 -94 -47 -42 -4 51 43 151 84 133 55z m325 -60 c0 -5 -13 -25 -30 -43 -37 -43 -65 -108 -81 -189 -16 -87 -29 -95 -28 -18 0 83 22 135 82 205 49 56 57 62 57 45z m10 -185 c-12 -24 -41 -62 -65 -84 -47 -44 -73 -54 -56 -23 5 9 17 46 26 82 18 71 45 128 84 179 l26 35 3 -73 c2 -58 -1 -82 -18 -116z m-175 128 c-4 -10 -11 -31 -16 -46 -16 -56 -60 -116 -135 -186 -42 -39 -78 -70 -80 -69 -5 6 58 132 84 168 34 46 134 150 145 150 5 0 6 -8 2 -17z m-104 -51 c-37 -38 -72 -88 -99 -143 -37 -73 -42 -79 -36 -44 12 73 71 166 136 214 63 46 63 38 -1 -27z" fill="#fcfafa"/>
<path d="M1896 3101 c-10 -16 4 -37 38 -57 19 -10 65 -49 104 -86 l71 -67 -34 -34 c-31 -31 -35 -41 -35 -88 0 -80 13 -95 115 -140 50 -22 100 -51 113 -65 29 -33 30 -90 2 -99 -11 -3 -20 -13 -20 -21 0 -11 6 -13 23 -8 22 7 22 6 3 -15 -11 -11 -16 -24 -13 -27 10 -11 37 17 37 37 0 49 35 0 54 -75 6 -24 4 -27 -9 -22 -9 3 -44 3 -78 -1 -54 -5 -66 -11 -97 -42 -44 -46 -113 -142 -106 -148 3 -3 52 -5 109 -5 94 1 132 8 198 36 12 5 19 -6 34 -51 10 -32 24 -85 30 -118 11 -55 10 -63 -8 -89 -28 -40 -72 -55 -195 -67 -59 -5 -188 -26 -287 -46 -225 -45 -265 -49 -345 -28 -78 20 -142 59 -207 126 -67 70 -83 64 -83 -29 0 -26 -9 -93 -20 -150 -11 -56 -20 -119 -20 -140 0 -83 -68 -202 -173 -305 -72 -71 -152 -128 -295 -212 -243 -144 -497 -394 -577 -571 -31 -67 -34 -80 -21 -92 22 -22 53 -6 67 36 20 62 49 115 95 168 57 68 218 225 249 244 14 8 25 19 25 25 0 10 144 107 305 205 99 60 222 164 278 235 74 94 98 154 113 278 7 62 19 143 27 181 l13 68 29 -24 c80 -64 145 -98 200 -104 115 -12 139 -11 207 6 81 20 284 60 338 68 l35 4 -31 -33 c-40 -43 -128 -207 -154 -287 -74 -226 -81 -479 -16 -567 14 -19 16 -19 32 -4 15 16 15 20 -2 70 -20 61 -24 253 -6 271 13 13 138 -15 194 -43 54 -27 150 -121 175 -171 65 -126 177 -391 189 -448 43 -191 61 -417 38 -489 -6 -19 -4 -22 12 -19 28 5 54 65 54 123 0 54 -27 310 -36 337 -2 9 -9 42 -14 74 -9 54 -83 230 -181 431 -43 88 -101 150 -187 200 -49 29 -160 63 -205 63 -28 0 -29 1 -22 38 23 131 145 377 213 430 23 18 54 31 85 35 67 9 119 39 151 88 25 38 27 47 21 98 -4 31 -18 88 -31 128 -14 39 -35 124 -49 188 -24 116 -59 197 -90 209 -8 3 -15 12 -15 19 0 8 -9 26 -20 40 l-20 25 37 7 c55 10 70 21 75 55 5 36 1 37 -57 5 -33 -19 -46 -22 -49 -13 -2 7 -9 37 -15 67 -27 129 -56 167 -272 349 -49 40 -82 52 -93 33z m302 -349 c12 -38 22 -73 22 -78 0 -19 -83 -14 -116 7 -61 37 -61 110 0 177 l21 24 25 -31 c14 -17 36 -61 48 -99z m156 -448 c30 -30 20 -44 -34 -44 -46 0 -150 -31 -178 -53 -29 -23 -18 2 22 48 37 42 49 50 92 56 77 10 82 10 98 -7z m13 -97 c-3 -8 -27 -22 -54 -30 -54 -17 -203 -30 -203 -17 0 21 106 66 185 79 54 8 83 -5 72 -32z" fill="#fcfafa"/>
<path d="M2164 2467 c-23 -21 -34 -38 -30 -46 6 -10 12 -9 24 2 10 8 27 18 40 21 22 7 30 40 12 51 -5 3 -26 -9 -46 -28z" fill="#fcfafa"/>
</g>
</svg>